<svg width="114" height="192" viewBox="0 0 114 192" fill="none" xmlns="http://www.w3.org/2000/svg">
<path d="M52.2327 82.2117L16.2983 90.5305C14.9876 90.8589 14.0046 92.1724 14.0046 93.4859V118.224C14.0046 120.303 15.643 121.617 17.7182 121.179L67.8516 109.576C69.9268 109.139 70.8006 107.168 69.9268 105.308L60.8613 86.59C59.4414 83.6346 60.8613 80.5698 64.0288 79.913L96.7956 72.0319C99.0893 71.4847 101.055 69.0765 101.055 66.6684V43.7915C101.055 41.7117 99.417 40.2888 97.3418 40.8361L50.0482 52.1104C47.0992 52.7671 45.7885 55.6131 47.0992 58.3495L55.4001 75.5346C56.82 78.49 55.4001 81.4454 52.2327 82.2117Z" fill="black"/>
<path d="M28.5329 20.3678L37.926 39.6326C39.1275 42.1501 37.926 44.7772 35.1955 45.3245L17.829 49.3744C15.6445 49.9217 13.897 52.1109 13.897 54.3001V74.9879C13.897 78.4906 16.7368 80.6798 20.1227 79.9136L36.2877 76.1919C38.4721 75.7541 40.2197 73.4555 40.2197 71.2663L40.3289 50.0312C40.3289 47.0758 42.7318 44.1204 45.5716 43.4636L98.5448 30.7664C99.8555 30.438 100.838 29.1245 100.838 27.811V3.07321C100.838 0.993483 99.2001 -0.429487 97.1249 0.117809L30.6081 16.0988C28.5328 16.5367 27.6591 18.507 28.5329 20.3678Z" fill="black"/>
<path d="M29.4802 183.338H9.31003V151.579H0.000732422V192H29.4802V183.338Z" fill="black"/>
<path d="M35.5503 192H44.8596V151.579H35.5503V192Z" fill="black"/>
<path d="M51.8124 192H60.662V183.107H51.8124V192Z" fill="black"/>
<path d="M76.9007 176.236H96.3813V168.267H76.9007V159.779H98.0478V151.579H67.5914V192H76.9007V176.236Z" fill="black"/>
<path d="M104.376 192H113.685V151.579H104.376V192Z" fill="black"/>
</svg>
