<svg width="114" height="192" viewBox="0 0 114 192" fill="none" xmlns="http://www.w3.org/2000/svg">
<path d="M52.2337 82.2117L16.2993 90.5305C14.9886 90.8589 14.0056 92.1724 14.0056 93.4859V118.224C14.0056 120.303 15.644 121.617 17.7192 121.179L67.8525 109.576C69.9278 109.139 70.8016 107.168 69.9278 105.308L60.8623 86.59C59.4424 83.6346 60.8623 80.5698 64.0297 79.913L96.7966 72.0319C99.0903 71.4847 101.056 69.0765 101.056 66.6684V43.7915C101.056 41.7117 99.418 40.2888 97.3427 40.8361L50.0492 52.1104C47.1002 52.7671 45.7895 55.6131 47.1002 58.3495L55.4011 75.5346C56.821 78.49 55.4011 81.4454 52.2337 82.2117Z" fill="white"/>
<path d="M28.5338 20.3678L37.927 39.6326C39.1285 42.1501 37.927 44.7772 35.1964 45.3245L17.83 49.3744C15.6455 49.9217 13.8979 52.1109 13.8979 54.3001V74.9879C13.8979 78.4906 16.7377 80.6798 20.1237 79.9136L36.2887 76.1919C38.4731 75.7541 40.2207 73.4555 40.2207 71.2663L40.3299 50.0312C40.3299 47.0758 42.7328 44.1204 45.5726 43.4636L98.5458 30.7664C99.8564 30.438 100.839 29.1245 100.839 27.811V3.07321C100.839 0.993483 99.2011 -0.429487 97.1259 0.117809L30.6091 16.0988C28.5338 16.5367 27.66 18.507 28.5338 20.3678Z" fill="white"/>
<path d="M29.4811 183.338H9.31101V151.579H0.00170898V192H29.4811V183.338Z" fill="white"/>
<path d="M35.5513 192H44.8606V151.579H35.5513V192Z" fill="white"/>
<path d="M51.8134 192H60.663V183.107H51.8134V192Z" fill="white"/>
<path d="M76.9017 176.236H96.3823V168.267H76.9017V159.779H98.0488V151.579H67.5924V192H76.9017V176.236Z" fill="white"/>
<path d="M104.377 192H113.686V151.579H104.377V192Z" fill="white"/>
</svg>
